<mxfile host="www.draw.io" modified="2020-01-04T07:43:00.133Z" agent="Mozilla/5.0 (Macintosh; Intel Mac OS X 10_14_0) AppleWebKit/537.36 (KHTML, like Gecko) Chrome/79.0.3945.88 Safari/537.36" etag="H3x0aHtzfr_bx4r9Kpz5" version="12.4.8" type="github">
  <diagram id="dL4zb2LntlQY_fhQ5uw4" name="Page-1">
    <mxGraphModel dx="1186" dy="741" grid="1" gridSize="10" guides="1" tooltips="1" connect="1" arrows="1" fold="1" page="1" pageScale="1" pageWidth="827" pageHeight="1169" math="0" shadow="0">
      <root>
        <mxCell id="0"/>
        <mxCell id="1" parent="0"/>
        <mxCell id="BfoLB7McEBUzg3T-xTVi-1" value="«abstract»&#xa;AbstractTemplete" style="swimlane;fontStyle=1;align=center;verticalAlign=top;childLayout=stackLayout;horizontal=1;startSize=42;horizontalStack=0;resizeParent=1;resizeParentMax=0;resizeLast=0;collapsible=1;marginBottom=0;fillColor=#F08E81;fontColor=#FFFFFF;" vertex="1" parent="1">
          <mxGeometry x="333" y="150" width="160" height="121" as="geometry"/>
        </mxCell>
        <mxCell id="BfoLB7McEBUzg3T-xTVi-3" value="" style="line;strokeWidth=1;fillColor=#F08E81;align=left;verticalAlign=middle;spacingTop=-1;spacingLeft=3;spacingRight=3;rotatable=0;labelPosition=right;points=[];portConstraint=eastwest;fontColor=#FFFFFF;" vertex="1" parent="BfoLB7McEBUzg3T-xTVi-1">
          <mxGeometry y="42" width="160" height="1" as="geometry"/>
        </mxCell>
        <mxCell id="BfoLB7McEBUzg3T-xTVi-2" value="+ templeteMethod()" style="text;strokeColor=none;fillColor=#F08E81;align=left;verticalAlign=top;spacingLeft=4;spacingRight=4;overflow=hidden;rotatable=0;points=[[0,0.5],[1,0.5]];portConstraint=eastwest;fontColor=#FFFFFF;" vertex="1" parent="BfoLB7McEBUzg3T-xTVi-1">
          <mxGeometry y="43" width="160" height="26" as="geometry"/>
        </mxCell>
        <mxCell id="BfoLB7McEBUzg3T-xTVi-4" value="+ stepOne()" style="text;strokeColor=none;fillColor=#F08E81;align=left;verticalAlign=top;spacingLeft=4;spacingRight=4;overflow=hidden;rotatable=0;points=[[0,0.5],[1,0.5]];portConstraint=eastwest;fontColor=#FFFFFF;" vertex="1" parent="BfoLB7McEBUzg3T-xTVi-1">
          <mxGeometry y="69" width="160" height="26" as="geometry"/>
        </mxCell>
        <mxCell id="BfoLB7McEBUzg3T-xTVi-18" value="+ stepTwo()" style="text;strokeColor=none;fillColor=#F08E81;align=left;verticalAlign=top;spacingLeft=4;spacingRight=4;overflow=hidden;rotatable=0;points=[[0,0.5],[1,0.5]];portConstraint=eastwest;fontColor=#FFFFFF;" vertex="1" parent="BfoLB7McEBUzg3T-xTVi-1">
          <mxGeometry y="95" width="160" height="26" as="geometry"/>
        </mxCell>
        <mxCell id="BfoLB7McEBUzg3T-xTVi-14" value="ConcreteImplA" style="swimlane;fontStyle=1;align=center;verticalAlign=top;childLayout=stackLayout;horizontal=1;startSize=26;horizontalStack=0;resizeParent=1;resizeParentMax=0;resizeLast=0;collapsible=1;marginBottom=0;fillColor=#F08E81;fontColor=#FFFFFF;" vertex="1" parent="1">
          <mxGeometry x="173" y="360" width="160" height="79" as="geometry"/>
        </mxCell>
        <mxCell id="BfoLB7McEBUzg3T-xTVi-16" value="" style="line;strokeWidth=1;fillColor=#F08E81;align=left;verticalAlign=middle;spacingTop=-1;spacingLeft=3;spacingRight=3;rotatable=0;labelPosition=right;points=[];portConstraint=eastwest;fontColor=#FFFFFF;" vertex="1" parent="BfoLB7McEBUzg3T-xTVi-14">
          <mxGeometry y="26" width="160" height="1" as="geometry"/>
        </mxCell>
        <mxCell id="BfoLB7McEBUzg3T-xTVi-17" value="+ stepOne()" style="text;strokeColor=none;fillColor=#F08E81;align=left;verticalAlign=top;spacingLeft=4;spacingRight=4;overflow=hidden;rotatable=0;points=[[0,0.5],[1,0.5]];portConstraint=eastwest;fontColor=#FFFFFF;" vertex="1" parent="BfoLB7McEBUzg3T-xTVi-14">
          <mxGeometry y="27" width="160" height="26" as="geometry"/>
        </mxCell>
        <mxCell id="BfoLB7McEBUzg3T-xTVi-19" value="+ stepTwo()" style="text;strokeColor=none;fillColor=#F08E81;align=left;verticalAlign=top;spacingLeft=4;spacingRight=4;overflow=hidden;rotatable=0;points=[[0,0.5],[1,0.5]];portConstraint=eastwest;fontColor=#FFFFFF;" vertex="1" parent="BfoLB7McEBUzg3T-xTVi-14">
          <mxGeometry y="53" width="160" height="26" as="geometry"/>
        </mxCell>
        <mxCell id="BfoLB7McEBUzg3T-xTVi-20" value="ConcreteImplB" style="swimlane;fontStyle=1;align=center;verticalAlign=top;childLayout=stackLayout;horizontal=1;startSize=26;horizontalStack=0;resizeParent=1;resizeParentMax=0;resizeLast=0;collapsible=1;marginBottom=0;fillColor=#F08E81;fontColor=#FFFFFF;" vertex="1" parent="1">
          <mxGeometry x="493" y="360" width="160" height="79" as="geometry"/>
        </mxCell>
        <mxCell id="BfoLB7McEBUzg3T-xTVi-21" value="" style="line;strokeWidth=1;fillColor=#F08E81;align=left;verticalAlign=middle;spacingTop=-1;spacingLeft=3;spacingRight=3;rotatable=0;labelPosition=right;points=[];portConstraint=eastwest;fontColor=#FFFFFF;" vertex="1" parent="BfoLB7McEBUzg3T-xTVi-20">
          <mxGeometry y="26" width="160" height="1" as="geometry"/>
        </mxCell>
        <mxCell id="BfoLB7McEBUzg3T-xTVi-22" value="+ stepOne()" style="text;strokeColor=none;fillColor=#F08E81;align=left;verticalAlign=top;spacingLeft=4;spacingRight=4;overflow=hidden;rotatable=0;points=[[0,0.5],[1,0.5]];portConstraint=eastwest;fontColor=#FFFFFF;" vertex="1" parent="BfoLB7McEBUzg3T-xTVi-20">
          <mxGeometry y="27" width="160" height="26" as="geometry"/>
        </mxCell>
        <mxCell id="BfoLB7McEBUzg3T-xTVi-23" value="+ stepTwo()" style="text;strokeColor=none;fillColor=#F08E81;align=left;verticalAlign=top;spacingLeft=4;spacingRight=4;overflow=hidden;rotatable=0;points=[[0,0.5],[1,0.5]];portConstraint=eastwest;fontColor=#FFFFFF;" vertex="1" parent="BfoLB7McEBUzg3T-xTVi-20">
          <mxGeometry y="53" width="160" height="26" as="geometry"/>
        </mxCell>
        <mxCell id="BfoLB7McEBUzg3T-xTVi-24" value="Extends" style="endArrow=block;endSize=16;endFill=0;html=1;fontColor=#000000;entryX=0.5;entryY=1;entryDx=0;entryDy=0;exitX=0.5;exitY=0;exitDx=0;exitDy=0;edgeStyle=orthogonalEdgeStyle;" edge="1" parent="1" source="BfoLB7McEBUzg3T-xTVi-14" target="BfoLB7McEBUzg3T-xTVi-1">
          <mxGeometry width="160" relative="1" as="geometry">
            <mxPoint x="70" y="330" as="sourcePoint"/>
            <mxPoint x="230" y="330" as="targetPoint"/>
          </mxGeometry>
        </mxCell>
        <mxCell id="BfoLB7McEBUzg3T-xTVi-25" value="Extends" style="endArrow=block;endSize=16;endFill=0;html=1;fontColor=#000000;entryX=0.5;entryY=1;entryDx=0;entryDy=0;exitX=0.5;exitY=0;exitDx=0;exitDy=0;edgeStyle=orthogonalEdgeStyle;" edge="1" parent="1" source="BfoLB7McEBUzg3T-xTVi-20" target="BfoLB7McEBUzg3T-xTVi-1">
          <mxGeometry width="160" relative="1" as="geometry">
            <mxPoint x="290" y="540" as="sourcePoint"/>
            <mxPoint x="450" y="540" as="targetPoint"/>
          </mxGeometry>
        </mxCell>
      </root>
    </mxGraphModel>
  </diagram>
</mxfile>
